<svg xmlns="http://www.w3.org/2000/svg" xmlns:xlink="http://www.w3.org/1999/xlink" width="462" zoomAndPan="magnify" viewBox="0 0 346.5 331.499995" height="442" preserveAspectRatio="xMidYMid meet" version="1.0"><defs><clipPath id="904f97b082"><path d="M 28 105 L 343 105 L 343 212 L 28 212 Z M 28 105 " clip-rule="nonzero"/></clipPath><clipPath id="497e53297f"><path d="M 345.425781 156.585938 L 116.742188 327.203125 L -0.136719 170.542969 L 228.546875 -0.0742188 Z M 345.425781 156.585938 " clip-rule="nonzero"/></clipPath><clipPath id="e9f3cb43b7"><path d="M 345.425781 156.585938 L 116.742188 327.203125 L -0.136719 170.542969 L 228.546875 -0.0742188 Z M 345.425781 156.585938 " clip-rule="nonzero"/></clipPath><clipPath id="1b1ab77d94"><path d="M 28 109 L 343 109 L 343 215 L 28 215 Z M 28 109 " clip-rule="nonzero"/></clipPath><clipPath id="4103b91067"><path d="M 345.425781 159.964844 L 116.742188 330.585938 L -0.136719 173.925781 L 228.546875 3.308594 Z M 345.425781 159.964844 " clip-rule="nonzero"/></clipPath><clipPath id="44ef84cf15"><path d="M 345.425781 159.964844 L 116.742188 330.585938 L -0.136719 173.925781 L 228.546875 3.308594 Z M 345.425781 159.964844 " clip-rule="nonzero"/></clipPath></defs><g clip-path="url(#904f97b082)"><g clip-path="url(#497e53297f)"><g clip-path="url(#e9f3cb43b7)"><path fill="#cee4ba" d="M 30.546875 210.136719 C 32.082031 211.109375 34 211.175781 35.621094 210.339844 L 84.753906 184.085938 C 87.195312 182.761719 88.132812 179.757812 86.808594 177.316406 C 85.488281 174.878906 82.484375 173.941406 80.042969 175.265625 L 46.929688 192.929688 C 58.242188 175.019531 76.972656 152.695312 106.320312 136.40625 C 118.78125 129.476562 151.886719 111.132812 193.960938 117 C 210.253906 119.300781 227.261719 125.054688 241.332031 133.0625 C 235.398438 138.300781 230.238281 145.078125 226.503906 152.601562 C 220.691406 164.351562 219.230469 176.34375 222.390625 186.257812 C 225.503906 196.023438 231.636719 203.660156 239.675781 207.753906 C 245.992188 210.957031 252.242188 211.902344 258.316406 210.609375 C 266.902344 208.753906 273.820312 202.65625 278.878906 192.402344 C 279.128906 191.90625 284.890625 180.003906 281.964844 165.054688 C 279.398438 151.765625 269.679688 141.074219 259.609375 133.257812 C 269.199219 129.40625 280.816406 129.023438 292.863281 132.3125 C 307.785156 136.445312 322.503906 145.898438 334.265625 158.992188 C 336.109375 161.046875 339.261719 161.183594 341.316406 159.339844 C 343.367188 157.496094 343.574219 154.351562 341.734375 152.300781 C 315.070312 122.660156 276.625 111.964844 250.167969 126.78125 C 234.320312 116.984375 214.34375 109.832031 195.3125 107.207031 C 149.957031 100.859375 114.71875 120.359375 101.476562 127.746094 C 94.484375 131.652344 88.0625 135.820312 82.179688 140.210938 C 62.484375 154.902344 48.71875 171.777344 39.414062 186.199219 L 41.453125 149.847656 C 41.640625 147.089844 39.519531 144.75 36.761719 144.5625 C 35.523438 144.488281 34.394531 144.894531 33.515625 145.554688 C 32.355469 146.417969 31.589844 147.734375 31.507812 149.292969 L 28.230469 205.695312 C 28.117188 207.464844 29.011719 209.164062 30.546875 210.136719 Z M 272.121094 166.976562 C 274.328125 178.539062 269.890625 187.957031 269.878906 188.027344 C 268.917969 189.992188 266.527344 194.890625 262.164062 198.144531 C 260.484375 199.398438 258.511719 200.433594 256.195312 200.914062 C 250.558594 202.128906 245.769531 199.722656 244.175781 198.917969 C 236.59375 195.101562 233.234375 187.515625 231.917969 183.324219 C 227.210938 168.582031 237.359375 148.863281 250.207031 138.777344 C 262.570312 147.496094 270.265625 157.394531 272.121094 166.976562 Z M 272.121094 166.976562 " fill-opacity="1" fill-rule="nonzero"/></g></g></g><g clip-path="url(#1b1ab77d94)"><g clip-path="url(#4103b91067)"><g clip-path="url(#44ef84cf15)"><path fill="#cee4ba" d="M 30.546875 213.519531 C 32.082031 214.492188 34 214.554688 35.621094 213.722656 L 84.753906 187.46875 C 87.195312 186.144531 88.132812 183.140625 86.808594 180.699219 C 85.488281 178.261719 82.484375 177.324219 80.042969 178.644531 L 46.929688 196.3125 C 58.242188 178.402344 76.972656 156.074219 106.320312 139.789062 C 118.78125 132.859375 151.886719 114.515625 193.960938 120.382812 C 210.253906 122.683594 227.261719 128.4375 241.332031 136.445312 C 235.398438 141.683594 230.238281 148.460938 226.503906 155.980469 C 220.691406 167.734375 219.230469 179.726562 222.390625 189.640625 C 225.503906 199.40625 231.636719 207.042969 239.675781 211.136719 C 245.992188 214.339844 252.242188 215.285156 258.316406 213.992188 C 266.902344 212.136719 273.820312 206.039062 278.878906 195.785156 C 279.128906 195.285156 284.890625 183.386719 281.964844 168.4375 C 279.398438 155.144531 269.679688 144.453125 259.609375 136.640625 C 269.199219 132.789062 280.816406 132.40625 292.863281 135.695312 C 307.785156 139.828125 322.503906 149.28125 334.265625 162.375 C 336.109375 164.429688 339.261719 164.566406 341.316406 162.722656 C 343.367188 160.878906 343.574219 157.734375 341.734375 155.683594 C 315.070312 126.042969 276.625 115.347656 250.167969 130.164062 C 234.320312 120.367188 214.34375 113.214844 195.3125 110.589844 C 149.957031 104.242188 114.71875 123.742188 101.476562 131.128906 C 94.484375 135.035156 88.0625 139.203125 82.179688 143.59375 C 62.484375 158.285156 48.71875 175.160156 39.414062 189.582031 L 41.453125 153.230469 C 41.640625 150.472656 39.519531 148.132812 36.761719 147.945312 C 35.523438 147.871094 34.394531 148.277344 33.515625 148.933594 C 32.355469 149.800781 31.589844 151.117188 31.507812 152.675781 L 28.230469 209.078125 C 28.117188 210.847656 29.011719 212.546875 30.546875 213.519531 Z M 272.121094 170.359375 C 274.328125 181.921875 269.890625 191.339844 269.878906 191.410156 C 268.917969 193.375 266.527344 198.273438 262.164062 201.527344 C 260.484375 202.78125 258.511719 203.816406 256.195312 204.296875 C 250.558594 205.511719 245.769531 203.101562 244.175781 202.300781 C 236.59375 198.484375 233.234375 190.898438 231.917969 186.707031 C 227.210938 171.964844 237.359375 152.246094 250.207031 142.160156 C 262.570312 150.878906 270.265625 160.777344 272.121094 170.359375 Z M 272.121094 170.359375 " fill-opacity="1" fill-rule="nonzero"/></g></g></g></svg>