<svg xmlns="http://www.w3.org/2000/svg" xmlns:xlink="http://www.w3.org/1999/xlink" width="65" zoomAndPan="magnify" viewBox="0 0 48.75 48.75" height="65" preserveAspectRatio="xMidYMid meet" version="1.0"><defs><clipPath id="a8265c7255"><path d="M 8.105469 6 L 40 6 L 40 42.429688 L 8.105469 42.429688 Z M 8.105469 6 " clip-rule="nonzero"/></clipPath></defs><g clip-path="url(#a8265c7255)"><path fill="#000000" d="M 30.277344 24.242188 C 32.824219 24.867188 35.023438 25.398438 37.21875 25.953125 C 37.941406 26.089844 38.632812 26.3125 39.300781 26.621094 C 40.1875 27.101562 40.105469 28.003906 39.222656 28.492188 C 38.660156 28.742188 38.074219 28.832031 37.460938 28.757812 C 34.722656 28.722656 31.980469 28.867188 29.257812 28.421875 C 28.40625 28.328125 27.554688 28.28125 26.699219 28.273438 C 27.171875 29.703125 28.0625 30.671875 28.839844 31.710938 C 29.921875 33.15625 31.023438 34.582031 32.09375 36.035156 C 32.523438 36.617188 33.101562 37.226562 32.347656 37.964844 C 31.652344 38.640625 30.960938 38.210938 30.328125 37.855469 C 28.449219 36.792969 26.804688 35.441406 25.402344 33.792969 C 25.121094 33.464844 24.976562 32.933594 24.230469 32.96875 C 23.894531 35.457031 23.289062 37.878906 22.410156 40.234375 C 22.214844 40.730469 22.027344 41.230469 21.796875 41.710938 C 21.714844 41.941406 21.570312 42.121094 21.363281 42.246094 C 21.152344 42.375 20.925781 42.421875 20.683594 42.390625 C 20.40625 42.359375 20.171875 42.242188 19.980469 42.035156 C 19.789062 41.828125 19.691406 41.585938 19.679688 41.304688 C 19.617188 40.636719 19.660156 39.972656 19.796875 39.3125 C 20.222656 36.683594 20.617188 34.050781 21.011719 31.488281 C 20.460938 30.96875 20.046875 31.332031 19.628906 31.453125 C 16.75 32.300781 13.871094 33.167969 10.988281 34.007812 C 10.101562 34.265625 8.988281 34.710938 8.546875 33.539062 C 8.121094 32.421875 9.179688 31.925781 10.007812 31.484375 C 11.953125 30.441406 13.90625 29.425781 15.851562 28.382812 C 16.367188 28.109375 16.996094 28.007812 17.457031 27.269531 C 15.714844 26.945312 14.058594 26.65625 12.410156 26.328125 C 11.621094 26.1875 10.851562 25.988281 10.09375 25.726562 C 9.820312 25.648438 9.609375 25.492188 9.460938 25.246094 C 9.3125 25.003906 9.269531 24.742188 9.328125 24.464844 C 9.378906 24.1875 9.511719 23.960938 9.730469 23.785156 C 9.949219 23.605469 10.199219 23.523438 10.480469 23.53125 C 11.550781 23.511719 12.621094 23.519531 13.691406 23.519531 C 14.746094 23.519531 15.804688 23.519531 16.839844 23.519531 C 17.023438 22.789062 16.558594 22.417969 16.289062 21.984375 C 15.121094 20.191406 14.0625 18.332031 13.109375 16.414062 C 12.808594 15.78125 12.589844 15.117188 13.230469 14.585938 C 13.945312 13.996094 14.660156 14.320312 15.199219 14.867188 C 16.84375 16.527344 18.449219 18.234375 20.054688 19.933594 C 20.734375 20.65625 21.386719 21.40625 22.230469 22.34375 C 22.980469 20.742188 23.042969 19.222656 23.164062 17.761719 C 23.445312 14.414062 24.257812 11.179688 25.015625 7.933594 C 25.222656 7.042969 25.46875 5.894531 26.691406 6.035156 C 27.863281 6.171875 27.972656 7.335938 27.980469 8.246094 C 28.027344 12.265625 27.734375 16.257812 27.101562 20.222656 C 27.082031 20.417969 27.082031 20.609375 27.097656 20.804688 C 27.855469 20.742188 28.28125 20.179688 28.777344 19.753906 C 30.800781 18.09375 32.996094 16.703125 35.363281 15.582031 C 35.65625 15.425781 35.964844 15.292969 36.28125 15.1875 C 36.539062 15.082031 36.800781 15.058594 37.070312 15.121094 C 37.339844 15.179688 37.566406 15.3125 37.753906 15.519531 C 38.1875 16.007812 38 16.503906 37.742188 17.003906 C 37.351562 17.636719 36.871094 18.1875 36.292969 18.652344 C 34.398438 20.425781 32.492188 22.1875 30.277344 24.242188 Z M 30.277344 24.242188 " fill-opacity="1" fill-rule="nonzero"/></g></svg>