<?xml version="1.0" encoding="UTF-8"?>
<svg width="1024px" height="1024px" viewBox="0 0 1024 1024" version="1.1" xmlns="http://www.w3.org/2000/svg" xmlns:xlink="http://www.w3.org/1999/xlink">
    <title>Artboard Copy</title>
    <g id="Artboard-Copy" stroke="none" stroke-width="1" fill="none" fill-rule="evenodd">
        <g id="squiggle" transform="translate(146.2337, 146.2337)" stroke="#2273F3" stroke-width="70">
            <path d="M290.02566,1.32862213 C292.239725,0.0566031296 294.939048,-0.37077887 297.59884,0.34797713 C299.705135,0.91716213 301.566793,2.16108313 302.898696,3.88922813 L318.242903,23.7983571 C328.35713,36.9215811 342.833082,44.7028301 358.061283,46.6747161 C373.289484,48.6466011 389.269934,44.8091251 402.393158,34.6948971 C406.478611,31.5461891 410.14099,27.8838101 413.289698,23.7983571 L428.633904,3.88922813 C430.315807,1.70695613 432.723025,0.41300613 435.255334,0.0851001296 C437.787644,-0.24280587 440.445046,0.39533113 442.627317,2.07723313 C444.355462,3.40913613 445.599383,5.27079413 446.168567,7.37708913 L452.725872,31.6427001 C457.048159,47.6375251 467.44444,60.3661681 480.758855,68.0155341 C494.07327,75.6648991 510.30582,78.2349861 526.300645,73.9126991 C531.28007,72.5671071 536.065198,70.5850421 540.537661,68.0155341 L562.332753,55.4938701 C564.721748,54.1213511 567.4409,53.8470991 569.905933,54.5132261 C572.370967,55.1793531 574.581881,56.7858581 575.954401,59.1748531 C577.041302,61.0667031 577.478108,63.2626781 577.197922,65.4264591 L573.970035,90.3543321 C571.842353,106.785691 576.576223,122.523909 585.949853,134.686207 C595.323483,146.848505 609.336874,155.434883 625.768233,157.562565 C630.883558,158.224944 636.062943,158.224944 641.178268,157.562565 L666.106141,154.334678 C668.838525,153.980864 671.455645,154.768063 673.478124,156.326811 C675.500602,157.885559 676.928438,160.215857 677.282251,162.948241 C677.562437,165.112021 677.125631,167.307997 676.03873,169.199847 L663.517066,190.994939 C655.263336,205.361307 653.614106,221.713098 657.619901,236.536729 C661.625696,251.36036 671.286516,264.655832 685.652884,272.909563 C690.125347,275.479071 694.910475,277.461136 699.8899,278.806728 L724.155511,285.364033 C726.815303,286.082789 728.931959,287.811595 730.203978,290.02566 C731.475997,292.239724 731.903379,294.939048 731.184623,297.59884 C730.615438,299.705135 729.371517,301.566793 727.643372,302.898696 L707.734243,318.242902 C694.611019,328.35713 686.82977,342.833081 684.857884,358.061282 C682.885999,373.289483 686.723475,389.269933 696.837703,402.393157 C699.986411,406.47861 703.64879,410.140989 707.734243,413.289697 L727.643372,428.633904 C729.825644,430.315807 731.119594,432.723024 731.4475,435.255334 C731.775406,437.787644 731.137269,440.445045 729.455367,442.627317 C728.123464,444.355462 726.261806,445.599382 724.155511,446.168567 L699.8899,452.725871 C683.895075,457.048159 671.166432,467.444439 663.517066,480.758854 C655.867701,494.07327 653.297614,510.305819 657.619901,526.300644 C658.965493,531.28007 660.947558,536.065198 663.517066,540.53766 L676.03873,562.332753 C677.411249,564.721747 677.685501,567.4409 677.019374,569.905933 C676.353247,572.370966 674.746742,574.581881 672.357747,575.9544 C670.465897,577.041301 668.269922,577.478108 666.106141,577.197922 L641.178268,573.970034 C624.746909,571.842353 609.008691,576.576222 596.846393,585.949853 C584.684095,595.323483 576.097717,609.336873 573.970035,625.768233 C573.307656,630.883558 573.307656,636.062943 573.970035,641.178268 L577.197922,666.106141 C577.551736,668.838524 576.764537,671.455645 575.205789,673.478123 C573.647041,675.500601 571.316743,676.928437 568.584359,677.282251 C566.420579,677.562437 564.224603,677.12563 562.332753,676.038729 L540.537661,663.517066 C526.171293,655.263335 509.819502,653.614106 494.995871,657.619901 C480.17224,661.625696 466.876768,671.286516 458.623037,685.652884 C456.053529,690.125346 454.071464,694.910475 452.725872,699.8899 L446.168567,724.15551 C445.449811,726.815303 443.721005,728.931959 441.50694,730.203978 C439.292876,731.475997 436.593552,731.903379 433.93376,731.184622 C431.827465,730.615437 429.965807,729.371517 428.633904,727.643372 L413.289698,707.734243 C403.17547,694.611019 388.699519,686.82977 373.471318,684.857884 C358.243117,682.885998 342.262667,686.723475 329.139443,696.837702 C325.05399,699.986411 321.391611,703.648789 318.242903,707.734243 L302.898696,727.643372 C301.216793,729.825643 298.809576,731.119593 296.277266,731.4475 C293.744956,731.775406 291.087555,731.137269 288.905283,729.455366 C287.177138,728.123464 285.933218,726.261805 285.364033,724.15551 L278.806729,699.8899 C274.484441,683.895075 264.088161,671.166431 250.773746,663.517066 C237.45933,655.867701 221.226781,653.297614 205.231956,657.619901 C200.25253,658.965493 195.467402,660.947558 190.99494,663.517066 L169.199847,676.038729 C166.810853,677.411249 164.0917,677.6855 161.626667,677.019374 C159.161634,676.353247 156.950719,674.746741 155.5782,672.357747 C154.491299,670.465897 154.054492,668.269921 154.334678,666.106141 L157.562566,641.178268 C159.690247,624.746908 154.956378,609.008691 145.582747,596.846393 C136.209117,584.684095 122.195727,576.097716 105.764367,573.970034 C100.649042,573.307656 95.4696568,573.307656 90.3543318,573.970034 L65.4264588,577.197922 C62.6940758,577.551736 60.0769548,576.764537 58.0544768,575.205789 C56.0319988,573.64704 54.6041628,571.316742 54.2503488,568.584359 C53.9701628,566.420578 54.4069698,564.224603 55.4938708,562.332753 L68.0155338,540.53766 C76.2692648,526.171292 77.9184938,509.819502 73.9126988,494.99587 C69.9069038,480.172239 60.2460838,466.876767 45.8797158,458.623037 C41.4072538,456.053528 36.6221248,454.071463 31.6426998,452.725871 L7.37708983,446.168567 C4.71729683,445.44981 2.60064083,443.721005 1.32862183,441.50694 C0.0566028257,439.292875 -0.370779174,436.593552 0.347977826,433.93376 C0.917162826,431.827465 2.16108283,429.965807 3.88922783,428.633904 L23.7983568,413.289697 C36.9215808,403.17547 44.7028298,388.699518 46.6747158,373.471317 C48.6466018,358.243116 44.8091248,342.262666 34.6948978,329.139442 C31.5461888,325.053989 27.8838108,321.39161 23.7983568,318.242902 L3.88922783,302.898696 C1.70695683,301.216793 0.413006826,298.809575 0.0850998257,296.277266 C-0.242806174,293.744956 0.395330826,291.087554 2.07723383,288.905283 C3.40913583,287.177138 5.27079483,285.933217 7.37708983,285.364033 L31.6426998,278.806728 C47.6375248,274.484441 60.3661688,264.08816 68.0155338,250.773745 C75.6648988,237.45933 78.2349858,221.22678 73.9126988,205.231955 C72.5671068,200.25253 70.5850418,195.467402 68.0155338,190.994939 L55.4938708,169.199847 C54.1213508,166.810852 53.8470998,164.0917 54.5132258,161.626667 C55.1793528,159.161633 56.7858588,156.950719 59.1748528,155.578199 C61.0667028,154.491298 63.2626788,154.054492 65.4264588,154.334678 L90.3543318,157.562565 C106.785692,159.690247 122.523909,154.956377 134.686207,145.582747 C146.848505,136.209117 155.434884,122.195726 157.562566,105.764367 C158.224944,100.649042 158.224944,95.4696571 157.562566,90.3543321 L154.334678,65.4264591 C153.980864,62.6940751 154.768063,60.0769551 156.326811,58.0544761 C157.88556,56.0319981 160.215858,54.6041621 162.948241,54.2503491 C165.112022,53.9701631 167.307997,54.4069691 169.199847,55.4938701 L190.99494,68.0155341 C205.361308,76.2692641 221.713098,77.9184941 236.53673,73.9126991 C251.360361,69.9069041 264.655833,60.2460841 272.909563,45.8797161 C275.479072,41.4072531 277.461137,36.6221251 278.806729,31.6427001 L285.364033,7.37708913 C286.08279,4.71729713 287.811595,2.60064113 290.02566,1.32862213 Z" id="Star"></path>
        </g>
    </g>
</svg>